<svg width="1920" height="1080" viewBox="0 0 1920 1080" fill="none" xmlns="http://www.w3.org/2000/svg">
<g clip-path="url(#clip0_344_984)">
<rect width="1920" height="1080" fill="url(#paint0_radial_344_984)"/>
<g style="mix-blend-mode:difference">
<path d="M1060.8 -4271.96L1144.02 -4328L1229.93 -4271.96V-3778.29L1270.2 -3703.58L1237.99 -3666.22V-3175.22L1305.1 -3135.19V-2742.93L1348.06 -2697.56L1388.33 -2617.51L1364.17 -2593.49L1415.17 -2500.1L1305.1 -2444.06L1313.16 -1504.75L1323.9 -1494.08V-1470.06L1785.66 -640.169L1793.71 638.03L1863.51 672.721L1936 1273.13L1925.26 1395.88L1903.78 1446.58L1852.78 1515.96V2754.13L1828.61 2775.48L1780.29 3298.5L1791.03 3309.17L1780.29 3322.52L1772.24 3786.83H1791.03V3818.85L1780.29 3842.87L1753.44 5035.68L1817.87 5307.86V5548.02L1777.6 5582.71V6372.58L1801.77 6457.97L1777.6 6548.7V7560.05H1731.97V7106.41H1662.16V7952.32H1595.05V7106.41H1514.51V8862.27H1436.65V7106.41H1329.26V9446.66H1203.09L1176.24 7106.41H1074.22V9345.26H1004.42V7106.41H937.303V9734.86H867.502V7253.18H805.754V8459.33H749.376V7626.76H692.998V9446.66H631.251V8155.12H577.557V9943H515.81V6887.6L564.134 6858.24V6839.56L545.341 6804.87L564.134 6775.52L550.711 5561.37L521.179 5489.32L502.387 5363.9L550.711 5073.03V3829.53L539.972 3813.51V3781.49L550.711 3768.15V3693.43L558.765 3658.74L550.711 3581.36V3322.52L539.972 3309.17L550.711 3298.5L510.441 2764.8L472.855 2754.13V1734.77L446.009 1726.77L472.855 1657.39L459.432 1604.02V1574.67L472.855 1531.97V1515.96L419.162 1438.57L405.739 1409.22L395 1171.73L472.855 672.721L542.657 638.03V-650.843L829.916 -1152.52V-1219.23L886.294 -1243.24L1015.16 -1470.06V-1494.08L1025.9 -1510.09L1007.1 -2436.05L902.402 -2508.1L966.834 -2601.5L926.564 -2636.19L966.834 -2697.56L1007.1 -2732.25V-3135.19L1060.8 -3175.22V-3666.22L1028.58 -3703.58L1060.8 -3778.29V-4271.96Z" fill="#A32F2F"/>
</g>
<g style="mix-blend-mode:overlay">
<path d="M1336.77 -119.509L1350.86 -129L1365.41 -119.509V-35.8994L1372.23 -23.2449L1366.78 -16.9177V66.2401L1378.14 73.0193V139.455L1385.42 147.138L1392.24 160.697L1388.15 164.764L1396.79 180.582L1378.14 190.073L1379.51 349.157L1381.33 350.965V355.033L1459.54 495.588L1460.9 712.069L1472.72 717.944L1485 819.632L1483.18 840.421L1479.54 849.008L1470.9 860.759V1070.46L1466.81 1074.08L1458.63 1162.66L1460.45 1164.47L1458.63 1166.73L1457.26 1245.36H1460.45V1250.79L1458.63 1254.85L1454.08 1456.87L1464.99 1502.97V1543.65L1458.17 1549.52V1683.3L1462.26 1697.76L1458.17 1713.13V1884.41H1450.44V1807.58H1438.62V1950.85H1427.25V1807.58H1413.61V2104.96H1400.43V1807.58H1382.24V2203.94H1360.87L1356.32 1807.58H1339.04V2186.76H1327.22V1807.58H1315.85V2252.75H1304.03V1832.44H1293.57V2036.72H1284.02V1895.71H1274.47V2203.94H1264.01V1985.2H1254.92V2288H1244.46V1770.52L1252.65 1765.55V1762.39L1249.46 1756.51L1252.65 1751.54L1250.37 1545.91L1245.37 1533.7L1242.19 1512.46L1250.37 1463.2V1252.59L1248.55 1249.88V1244.46L1250.37 1242.2V1229.55L1251.74 1223.67L1250.37 1210.56V1166.73L1248.55 1164.47L1250.37 1162.66L1243.55 1072.27L1237.19 1070.46V897.818L1232.64 896.462L1237.19 884.712L1234.91 875.673V870.702L1237.19 863.47V860.759L1228.09 847.652L1225.82 842.681L1224 802.458L1237.19 717.944L1249.01 712.069V493.78L1297.66 408.814V397.516L1307.21 393.448L1329.04 355.033V350.965L1330.86 348.254L1327.67 191.429L1309.94 179.226L1320.85 163.408L1314.03 157.533L1320.85 147.138L1327.67 141.263V73.0193L1336.77 66.2401V-16.9177L1331.31 -23.2449L1336.77 -35.8994V-119.509Z" fill="#5B2F2F"/>
</g>
<g style="mix-blend-mode:difference">
<path d="M1112.18 -4327.69L1143.83 -4349L1176.5 -4327.69V-4139.96L1191.82 -4111.54L1179.56 -4097.34V-3910.62L1205.09 -3895.4V-3746.23L1221.42 -3728.97L1236.74 -3698.53L1227.55 -3689.4L1246.94 -3653.88L1205.09 -3632.57L1208.15 -3275.37L1212.23 -3271.31V-3262.18L1387.83 -2946.59L1390.89 -2460.51L1417.44 -2447.32L1445 -2218.99L1440.92 -2172.31L1432.75 -2153.03L1413.35 -2126.65V-1655.8L1404.16 -1647.68L1385.79 -1448.78L1389.87 -1444.72L1385.79 -1439.65L1382.72 -1263.08H1389.87V-1250.9L1385.79 -1241.77L1375.58 -788.166L1400.08 -684.659V-593.33L1384.77 -580.137V-279.765L1393.95 -247.292L1384.77 -212.79V171.809H1367.41V-0.702637H1340.87V320.98H1315.34V-0.702637H1284.72V667.017H1255.11V-0.702637H1214.28V889.252H1166.29L1156.08 -0.702637H1117.29V850.691H1090.75V-0.702637H1065.22V998.848H1038.68V55.1099H1015.2V513.787H993.76V197.178H972.321V889.252H948.84V398.103H928.422V1078H904.941V-83.9141L923.317 -95.0767V-102.18L916.171 -115.372L923.317 -126.535L918.213 -588.256L906.983 -615.655L899.836 -663.349L918.213 -773.959V-1246.84L914.129 -1252.93V-1265.11L918.213 -1270.18V-1298.6L921.275 -1311.79L918.213 -1341.22V-1439.65L914.129 -1444.72L918.213 -1448.78L902.899 -1651.74L888.606 -1655.8V-2043.44L878.397 -2046.48L888.606 -2072.87L883.502 -2093.16V-2104.32L888.606 -2120.56V-2126.65L868.188 -2156.08L863.084 -2167.24L859 -2257.56L888.606 -2447.32L915.15 -2460.51V-2950.64L1024.39 -3141.42V-3166.79L1045.83 -3175.92L1094.83 -3262.18V-3271.31L1098.91 -3277.4L1091.77 -3629.53L1051.95 -3656.93L1076.45 -3692.44L1061.14 -3705.63L1076.45 -3728.97L1091.77 -3742.17V-3895.4L1112.18 -3910.62V-4097.34L1099.93 -4111.54L1112.18 -4139.96V-4327.69Z" fill="#6F6F6F"/>
</g>
<g style="mix-blend-mode:soft-light">
<path d="M1114.55 736.029L1134.04 738.688H1173.27L1174.03 753.375L1169.22 755.907L1170.11 768.062L1140.11 797.056L1090.13 953.295V983.302H1290.21V953.295L1219.84 797.056L1181.5 768.062V755.907L1175.68 753.375V738.688H1213.01L1233.39 736.029H1241.23L1254.52 788.446V797.056L1290.21 832.887L1332.99 839.091L1321.34 866.186L1385 928.353V947.851L1363.99 953.295L1369.43 989H958.634L950.155 928.353L842.076 594.603L813.348 557.759L820.309 547.63L760.575 463.686L743.49 473.815L724 444.314L743.49 400L860.807 553.074L881.688 581.815L877.006 590.425L914.466 674.495L902.57 624.23V601.187L926.362 587.259L931.678 594.603L940.916 590.425L950.155 603.466L940.916 608.024V619.546L934.589 634.739L969.518 797.056L1008.62 879.734L1092.28 797.056L1090.13 788.446L1101.39 736.029H1114.55Z" fill="#EB6227"/>
</g>
<ellipse cx="1562" cy="203" rx="146" ry="122" fill="#EEE1BF"/>
<g style="mix-blend-mode:screen">
<path d="M1161.54 42.6545L1165.48 40L1169.55 42.6545V66.0389L1171.46 69.5782L1169.93 71.3478V94.6058L1173.11 96.5019V115.083L1175.15 117.232L1177.06 121.024L1175.91 122.162L1178.33 126.586L1173.11 129.24L1173.49 173.734L1174 174.239V175.377L1195.88 214.688L1196.26 275.235L1199.57 276.878L1203 305.319L1202.49 311.133L1201.47 313.535L1199.06 316.821V375.472L1197.91 376.483L1195.62 401.258L1196.13 401.764L1195.62 402.396L1195.24 424.39H1196.13V425.906L1195.62 427.044L1194.35 483.546L1197.4 496.439V507.815L1195.5 509.458V546.874L1196.64 550.918L1195.5 555.216V603.123H1193.33V581.634H1190.03V621.704H1186.85V581.634H1183.03V664.807H1179.34V581.634H1174.26V692.489H1168.28L1167.01 581.634H1162.18V687.686H1158.87V581.634H1155.69V706.141H1152.38V588.586H1149.46V645.72H1146.79V606.283H1144.12V692.489H1141.19V631.31H1138.65V716H1135.72V571.269L1138.01 569.879V568.994L1137.12 567.351L1138.01 565.96L1137.38 508.447L1135.98 505.034L1135.09 499.094L1137.38 485.316V426.412L1136.87 425.654V424.137L1137.38 423.505V419.966L1137.76 418.322L1137.38 414.657V402.396L1136.87 401.764L1137.38 401.258L1135.47 375.978L1133.69 375.472V327.186L1132.42 326.807L1133.69 323.521L1133.05 320.993V319.602L1133.69 317.58V316.821L1131.14 313.156L1130.51 311.765L1130 300.515L1133.69 276.878L1136.99 275.235V214.182L1150.6 190.419V187.259L1153.27 186.121L1159.38 175.377V174.239L1159.89 173.481L1159 129.619L1154.04 126.206L1157.09 121.782L1155.18 120.139L1157.09 117.232L1159 115.589V96.5019L1161.54 94.6058V71.3478L1160.01 69.5782L1161.54 66.0389V42.6545Z" fill="#DBDBDB"/>
</g>
<path d="M1220.01 670.411C1235.31 658.013 1249.83 653.663 1249.83 631.62C1249.83 620.713 1244.85 605.373 1249.91 595.264C1256.06 582.999 1273.34 586.022 1281.82 594.481C1285.37 598.023 1286.75 603.106 1288.97 607.527C1289.73 609.06 1297.18 599.621 1298.82 598.047C1304.27 592.803 1315.48 591.035 1322 595.612C1326.02 598.426 1330.87 603.447 1331.42 608.484C1331.79 611.939 1334.01 617.921 1338.57 617.095C1345.77 615.788 1342.22 594.982 1342.4 589.349C1342.79 577.156 1346.2 573.936 1357.92 574.998C1362.78 575.44 1366.37 579.676 1371.25 580.217C1373 580.41 1372.21 565.435 1372.21 564.039C1372.21 552.209 1372.89 540.469 1387.03 540.469C1392.12 540.469 1398.58 541.522 1403.59 540.469C1407.03 539.748 1404.86 524.642 1405.34 521.769C1406.81 512.954 1410.63 500.393 1419.63 496.633C1439.24 488.444 1468.98 485.34 1485.88 502.199C1492.1 508.405 1491.2 518.292 1497.74 524.813C1502.34 529.41 1512.28 520.966 1517.44 520.029C1528.58 518.007 1536.52 517.395 1541.58 530.032C1545.06 538.701 1553.67 540.678 1562.07 534.207C1580.5 519.995 1605.76 560.025 1595.72 575.781C1588.18 587.597 1558.72 597.561 1568.69 614.398C1573 621.667 1587.48 630.91 1588.65 639.1C1590.47 651.794 1572.7 642.57 1566.08 642.231C1553.45 641.585 1545.91 647.995 1535.74 654.755C1533.05 656.544 1530.82 658.907 1530.69 662.235C1530.44 668.562 1524.21 663.356 1519.7 662.757C1492.83 659.181 1491.66 701.165 1489.54 718.074C1488.6 725.601 1486 737.686 1476.29 735.469C1467.81 733.531 1448.47 719.401 1441.08 726.511C1429.63 737.523 1428.7 758.203 1428.7 773.13C1428.7 784.023 1428.62 793.375 1421.46 802.441C1413.69 812.299 1408.19 812.679 1396.62 812.878C1373.04 813.283 1366.52 828.185 1354.17 844.798C1350.13 850.232 1344.82 858.761 1337.52 859.671C1327.98 860.861 1317.76 858.899 1310.32 852.539C1297.23 841.346 1301.61 819.882 1301.61 804.354C1301.61 787.334 1306.45 774.125 1324.79 770.694C1332.93 769.171 1347.52 771.302 1352.43 763.388C1355.18 758.941 1361.66 720.248 1353.38 718.944C1350.32 718.461 1347.05 719.328 1343.97 718.944C1336.29 717.986 1330.82 711.261 1322.7 711.116C1312.98 710.943 1306.72 717.647 1306.31 727.293C1305.99 734.891 1293.03 727.119 1286.7 727.119C1279.67 727.119 1265.52 729.44 1265.52 738.426C1265.52 741.206 1266.21 745.272 1264.82 747.82C1261.17 754.499 1248.41 753.44 1241.98 756.517C1233.46 760.596 1227.02 769.167 1224.72 778.348C1222.6 786.811 1213.59 790.206 1207.55 795.483C1200.27 801.838 1184.01 795.908 1175.21 795.657C1165.69 795.385 1165.08 805.544 1159.78 812.008C1157.87 814.342 1156.86 817.446 1154.9 819.836C1150.69 824.965 1135.78 819.4 1130.58 817.575C1124.75 815.53 1123.05 810.964 1119.94 806.094C1116.03 799.959 1109.97 793.786 1104.78 788.699C1093.45 777.599 1073.03 771.15 1058.49 779.131C1050.11 783.73 1054.3 797.679 1041.49 797.222C1024.84 796.629 1020.27 769.316 1025.63 757.474C1029.6 748.692 1039.67 743.969 1047.24 738.513C1052.87 734.461 1055.99 721.608 1056.66 715.117C1057.62 705.782 1056.04 703.067 1066.95 707.115C1085.47 713.992 1101.75 706.955 1105.13 685.719C1106.11 679.516 1102.52 672.248 1110.53 671.977C1122.07 671.586 1125.88 665.96 1128.14 655.016C1129.2 649.854 1130.14 642.655 1128.84 637.447C1127.36 631.541 1119.08 631.657 1114.28 630.576C1101.48 627.691 1079.75 625.215 1077.58 641.535C1076.85 647.038 1075.52 668.777 1064.42 665.453C1050.9 661.407 1050.46 643.286 1032.43 651.624C1026 654.594 1024.75 662.648 1025.8 668.845C1026.21 671.236 1031.69 679.359 1029.46 681.37C1025.14 685.274 1014.74 679.625 1011.68 684.675C1007.64 691.35 1012.02 699.619 1009.5 706.332C1006.73 713.694 996.917 704.21 994.943 701.375C989.494 693.546 986.226 682.205 986.226 672.672C986.226 658.783 1003.49 656.759 1003.49 643.014C1003.49 629.317 1001.41 616.348 985.267 617.269C979.917 617.574 972.133 617.732 969.838 623.618C966.639 631.826 961.29 633.008 956.24 639.795C946.676 652.65 962.985 667.483 956.327 679.109C950.718 688.902 953.199 698.706 947 707.985" stroke="#9D9C9A" stroke-width="5" stroke-linecap="round"/>
<path d="M889.034 731.739C876.98 728.826 862.49 727.762 862.263 743.603C862.162 750.652 862.058 758.073 865.763 764.365C868.999 769.863 874.861 773.601 874.861 780.416C874.861 804.863 851.682 784.988 843.016 800.829C835.993 813.668 842.27 809.605 851.24 816.182C855.341 819.189 857.078 822.124 855.614 827.523C854.127 833.01 846.011 833.32 845.029 837.729C843.6 844.138 846.967 854.421 854.389 847.238C863.743 838.186 870.444 831.5 879.673 846.453C885.08 855.215 891.527 870.323 876.436 873.059C870.6 874.117 863.986 876.595 858.414 878.642C849.464 881.93 856.107 887.242 857.189 893.821C858.104 899.388 858.86 908.508 856.489 913.71C853.213 920.897 847.187 926.966 844.416 934.298C838.598 949.693 847.075 950 858.851 950C873.059 950 869.813 930.495 874.249 920.951C876.965 915.106 881.174 906.297 888.246 904.638C897.816 902.393 900.99 906.257 904.431 894.693C906.839 886.602 907.08 882.481 915.804 882.481C919.634 882.481 924.855 881.584 928.402 883.353C933.645 885.967 932.863 893.472 941 893.472" stroke="#9D9C9A" stroke-width="5" stroke-linecap="round"/>
<path d="M817.186 633C805.971 640.979 796.891 650.843 796.891 665.326C796.891 673.129 796.438 684.288 803.364 689.462C811.08 695.226 827.115 715.326 814.037 722.397C798.746 730.665 810.638 736.865 810.887 749.757C811.105 761.02 807.631 767.88 795.141 767.88C789.359 767.88 776.512 770.228 776.246 777.639C775.93 786.454 783.881 800.083 770.822 804.302C760.125 807.757 749.385 810.319 741.255 818.417C732.707 826.93 731.14 831.625 729.358 843.162C728.05 851.629 727.05 862.748 736.881 865.468C742.64 867.062 748.379 870.378 754.289 871.219C762.996 872.458 772.519 871.393 781.32 871.393C787.859 871.393 794.277 871.139 800.74 872.177C806.742 873.142 807.57 873.005 804.589 878.015C800.499 884.89 806.426 895.278 802.314 901.541C796.003 911.155 772.039 905.466 770.297 915.656C769.315 921.405 771.054 928.27 773.884 933.344C776.88 938.715 764.243 939.914 761.375 941.099C748.456 946.434 730.654 943.004 719.56 952.949C707.644 963.631 709.33 985.91 711.687 1000" stroke="#9D9C9A" stroke-width="5" stroke-linecap="round"/>
<rect x="1071" y="989" width="738" height="9" fill="#455561"/>
<rect x="1139" y="1012" width="454" height="9" fill="#455561"/>
<rect x="1113" y="1035" width="221" height="9" fill="#455561"/>
<g style="mix-blend-mode:overlay" opacity="0.78">
<path d="M1075.96 600.061L1181.75 766.141L1074.48 616.769" stroke="#5B2F2F" stroke-width="3.09984"/>
<ellipse cx="565.865" cy="803.262" rx="32.9023" ry="9.03201" transform="rotate(-11.1767 565.865 803.262)" fill="#5B2F2F"/>
<ellipse cx="1178.61" cy="773.835" rx="32.9023" ry="9.03201" transform="rotate(2.02762 1178.61 773.835)" fill="#5B2F2F"/>
<ellipse cx="570.195" cy="636.727" rx="32.9023" ry="9.03201" transform="rotate(-10.0969 570.195 636.727)" fill="#5B2F2F"/>
<ellipse cx="1076.33" cy="558.342" rx="32.9023" ry="9.03201" transform="rotate(3.25385 1076.33 558.342)" fill="#5B2F2F"/>
<path d="M918.254 163.857L753.81 177.823L741.788 482.455L901.163 496.538L918.254 163.857Z" fill="#5B2F2F"/>
<path d="M998.013 199.401L924.68 164.425L908.232 497.162L984.311 486.398L998.013 199.401Z" fill="#5B2F2F"/>
<path d="M997.644 416.674L1068.64 557.019L994.372 433.783M753.81 177.823L918.254 163.857L901.163 496.538L741.788 482.455L753.81 177.823ZM924.68 164.425L998.013 199.401L984.311 486.398L908.232 497.162L924.68 164.425Z" stroke="#5B2F2F" stroke-width="3.09984"/>
<path d="M972.359 702.305L1178.83 769.771L971.508 711.944" stroke="#5B2F2F" stroke-width="3.09984"/>
<path d="M781.667 705.534L576.31 801.376L786.429 717.613" stroke="#5B2F2F" stroke-width="3.09984"/>
<path d="M644.233 644.17L564.113 807.423L650.242 653.268" stroke="#5B2F2F" stroke-width="3.09984"/>
<path d="M667.052 690.145L571.363 803.596L662.277 679.037" stroke="#5B2F2F" stroke-width="3.09984"/>
<path d="M770.438 517.969C761.189 506.928 748.772 498.992 734.867 495.236C720.962 491.48 706.238 492.085 692.688 496.969C679.137 501.852 667.413 510.779 659.101 522.542C650.789 534.305 646.289 548.337 646.21 562.74L649.405 562.758C649.48 549.009 653.775 535.614 661.71 524.386C669.645 513.157 680.836 504.636 693.771 499.974C706.706 495.312 720.76 494.735 734.034 498.321C747.308 501.906 759.16 509.481 767.989 520.021L770.438 517.969Z" fill="#5B2F2F"/>
<ellipse cx="727.51" cy="607.485" rx="81.2881" ry="78.7075" transform="rotate(5.04968 727.51 607.485)" fill="#5B2F2F"/>
<path d="M820.76 666.242L810.188 712.587L820.75 593.056L793.125 524.554C789.694 516.479 811.696 500.073 823.126 492.879L934.945 502.76L947.418 515.52L990.212 507.643L1053.33 497.028L1054.52 483.533L1073.15 485.18L1071.11 508.315L1060.26 513.833L1062.09 683.681L974.483 685.654L950.287 702.946L933.973 718.991L858.141 712.29L828.603 672.764L820.76 666.242Z" fill="#5B2F2F"/>
<path d="M735.06 411.246L569.823 636.471L732.274 425.82" stroke="#5B2F2F" stroke-width="3.09984"/>
</g>
<path d="M1499.98 982H1497.38V967.096H1492.32C1492.21 967.928 1492.09 968.816 1491.96 969.76C1491.85 970.688 1491.73 971.616 1491.6 972.544C1491.47 973.472 1491.34 974.352 1491.22 975.184C1491.09 976 1490.96 976.72 1490.83 977.344C1490.62 978.384 1490.36 979.272 1490.04 980.008C1489.72 980.744 1489.3 981.304 1488.77 981.688C1488.24 982.072 1487.54 982.264 1486.68 982.264C1486.39 982.264 1486.1 982.232 1485.82 982.168C1485.54 982.12 1485.3 982.056 1485.07 981.976V979.84C1485.26 979.904 1485.46 979.968 1485.67 980.032C1485.9 980.08 1486.13 980.104 1486.37 980.104C1486.82 980.104 1487.17 979.936 1487.42 979.6C1487.68 979.264 1487.89 978.816 1488.05 978.256C1488.21 977.696 1488.35 977.08 1488.48 976.408C1488.56 975.96 1488.66 975.36 1488.79 974.608C1488.92 973.856 1489.06 972.968 1489.2 971.944C1489.36 970.92 1489.52 969.808 1489.68 968.608C1489.86 967.408 1490.02 966.16 1490.16 964.864H1499.98V982ZM1512.09 977.08C1511.58 978.2 1511.06 979.152 1510.53 979.936C1510.02 980.704 1509.39 981.28 1508.63 981.664C1507.9 982.048 1506.95 982.24 1505.78 982.24C1505.35 982.24 1504.91 982.208 1504.48 982.144C1504.07 982.08 1503.68 981.992 1503.33 981.88V979.456C1503.67 979.6 1504.03 979.712 1504.43 979.792C1504.83 979.872 1505.23 979.912 1505.63 979.912C1506.21 979.912 1506.69 979.832 1507.07 979.672C1507.47 979.496 1507.82 979.232 1508.11 978.88C1508.39 978.512 1508.66 978.048 1508.9 977.488L1502.51 964.864H1505.32L1509.62 973.696C1509.7 973.824 1509.77 973.984 1509.83 974.176C1509.91 974.352 1509.99 974.536 1510.07 974.728C1510.17 974.92 1510.24 975.096 1510.29 975.256H1510.39C1510.45 975.128 1510.51 974.968 1510.58 974.776C1510.64 974.584 1510.71 974.392 1510.79 974.2C1510.87 974.008 1510.95 973.84 1511.01 973.696L1514.8 964.864H1517.51L1512.09 977.08ZM1533.16 982H1530.56V974.176H1522.38V982H1519.79V964.864H1522.38V971.968H1530.56V964.864H1533.16V982ZM1548.42 982L1546.6 977.056H1539.97L1538.15 982H1535.46L1541.96 964.792H1544.65L1551.13 982H1548.42ZM1544.15 969.976C1544.1 969.8 1544.01 969.536 1543.88 969.184C1543.77 968.816 1543.66 968.448 1543.55 968.08C1543.44 967.696 1543.35 967.384 1543.28 967.144C1543.2 967.464 1543.11 967.816 1543 968.2C1542.9 968.568 1542.8 968.912 1542.71 969.232C1542.61 969.536 1542.53 969.784 1542.47 969.976L1540.74 974.8H1545.88L1544.15 969.976ZM1552.05 976.648V974.488H1558V976.648H1552.05ZM1571.52 982H1560V980.032L1564.42 975.544C1565.28 974.664 1566 973.904 1566.58 973.264C1567.15 972.608 1567.59 971.984 1567.87 971.392C1568.16 970.784 1568.31 970.128 1568.31 969.424C1568.31 968.544 1568.05 967.888 1567.54 967.456C1567.03 967.008 1566.36 966.784 1565.55 966.784C1564.76 966.784 1564.06 966.936 1563.43 967.24C1562.81 967.528 1562.16 967.936 1561.49 968.464L1560.12 966.76C1560.59 966.36 1561.08 966 1561.61 965.68C1562.15 965.36 1562.75 965.104 1563.41 964.912C1564.08 964.72 1564.82 964.624 1565.62 964.624C1566.71 964.624 1567.64 964.816 1568.43 965.2C1569.21 965.568 1569.81 966.096 1570.23 966.784C1570.66 967.472 1570.87 968.28 1570.87 969.208C1570.87 969.896 1570.77 970.544 1570.56 971.152C1570.35 971.744 1570.05 972.328 1569.65 972.904C1569.27 973.48 1568.79 974.064 1568.23 974.656C1567.67 975.248 1567.06 975.872 1566.39 976.528L1563.19 979.624V979.744H1571.52V982ZM1579.4 971.368C1580.54 971.368 1581.53 971.568 1582.38 971.968C1583.22 972.368 1583.88 972.944 1584.34 973.696C1584.82 974.448 1585.06 975.368 1585.06 976.456C1585.06 977.656 1584.81 978.688 1584.3 979.552C1583.78 980.416 1583.04 981.08 1582.06 981.544C1581.1 982.008 1579.93 982.24 1578.54 982.24C1577.66 982.24 1576.82 982.16 1576.04 982C1575.26 981.84 1574.59 981.608 1574.05 981.304V978.976C1574.62 979.312 1575.32 979.584 1576.14 979.792C1576.97 980 1577.76 980.104 1578.51 980.104C1579.33 980.104 1580.02 979.984 1580.6 979.744C1581.19 979.488 1581.65 979.112 1581.97 978.616C1582.3 978.104 1582.47 977.464 1582.47 976.696C1582.47 975.656 1582.14 974.864 1581.49 974.32C1580.85 973.76 1579.83 973.48 1578.44 973.48C1577.99 973.48 1577.49 973.52 1576.93 973.6C1576.38 973.68 1575.94 973.76 1575.61 973.84L1574.43 973.144L1575.08 964.864H1583.89V967.12H1577.29L1576.9 971.608C1577.18 971.56 1577.52 971.512 1577.94 971.464C1578.35 971.4 1578.84 971.368 1579.4 971.368ZM1630.5 982L1628.68 977.056H1622.05L1620.23 982H1617.54L1624.04 964.792H1626.73L1633.21 982H1630.5ZM1626.23 969.976C1626.18 969.8 1626.09 969.536 1625.96 969.184C1625.85 968.816 1625.74 968.448 1625.63 968.08C1625.52 967.696 1625.43 967.384 1625.36 967.144C1625.28 967.464 1625.19 967.816 1625.08 968.2C1624.98 968.568 1624.88 968.912 1624.79 969.232C1624.69 969.536 1624.61 969.784 1624.55 969.976L1622.82 974.8H1627.96L1626.23 969.976ZM1635.52 982V964.864H1638.11V979.768H1645.43V982H1635.52ZM1653.68 982H1651.09V967.096H1645.95V964.864H1658.82V967.096H1653.68V982ZM1667.68 982V964.864H1670.27V979.768H1677.59V982H1667.68ZM1685.83 982H1679.18V980.512L1681.22 979.912V966.976L1679.18 966.352V964.864H1685.83V966.352L1683.81 966.976V979.912L1685.83 980.512V982ZM1703.09 982H1699.95L1691.29 968.152H1691.19C1691.21 968.472 1691.22 968.816 1691.24 969.184C1691.27 969.552 1691.29 969.944 1691.31 970.36C1691.33 970.76 1691.34 971.176 1691.36 971.608C1691.37 972.024 1691.38 972.448 1691.38 972.88V982H1689.03V964.864H1692.15L1700.79 978.64H1700.86C1700.85 978.4 1700.83 978.104 1700.81 977.752C1700.8 977.384 1700.78 976.992 1700.77 976.576C1700.77 976.16 1700.76 975.736 1700.74 975.304C1700.73 974.872 1700.71 974.464 1700.69 974.08V964.864H1703.09V982ZM1720.96 975.952C1720.96 977.136 1720.71 978.208 1720.21 979.168C1719.73 980.112 1718.99 980.864 1717.98 981.424C1716.97 981.968 1715.7 982.24 1714.17 982.24C1711.99 982.24 1710.33 981.664 1709.2 980.512C1708.08 979.344 1707.52 977.808 1707.52 975.904V964.864H1710.11V975.784C1710.11 977.192 1710.45 978.256 1711.14 978.976C1711.83 979.68 1712.88 980.032 1714.29 980.032C1715.25 980.032 1716.03 979.856 1716.64 979.504C1717.25 979.152 1717.69 978.664 1717.96 978.04C1718.25 977.4 1718.39 976.64 1718.39 975.76V964.864H1720.96V975.952ZM1737.67 982H1734.72L1730.35 974.848L1725.93 982H1723.17L1728.86 973.096L1723.53 964.864H1726.41L1730.45 971.416L1734.5 964.864H1737.26L1731.93 973.12L1737.67 982ZM1752.02 982H1749.43V967.096H1744.3V964.864H1757.16V967.096H1752.02V982ZM1769.44 982H1759.79V964.864H1769.44V967.072H1762.38V971.968H1769V974.152H1762.38V979.768H1769.44V982ZM1783.83 982L1782 977.056H1775.38L1773.56 982H1770.87L1777.37 964.792H1780.06L1786.54 982H1783.83ZM1779.56 969.976C1779.51 969.8 1779.42 969.536 1779.29 969.184C1779.18 968.816 1779.07 968.448 1778.96 968.08C1778.84 967.696 1778.76 967.384 1778.69 967.144C1778.61 967.464 1778.52 967.816 1778.4 968.2C1778.31 968.568 1778.21 968.912 1778.12 969.232C1778.02 969.536 1777.94 969.784 1777.88 969.976L1776.15 974.8H1781.28L1779.56 969.976ZM1796.31 982L1791.13 967.432H1791.03C1791.05 967.752 1791.07 968.184 1791.11 968.728C1791.14 969.272 1791.16 969.856 1791.18 970.48C1791.19 971.104 1791.2 971.72 1791.2 972.328V982H1788.85V964.864H1792.55L1797.47 978.616H1797.56L1802.63 964.864H1806.32V982H1803.8V972.184C1803.8 971.624 1803.81 971.048 1803.83 970.456C1803.86 969.848 1803.88 969.28 1803.9 968.752C1803.93 968.224 1803.95 967.792 1803.97 967.456H1803.87L1798.55 982H1796.31Z" fill="#FAFAFA"/>
</g>
<defs>
<radialGradient id="paint0_radial_344_984" cx="0" cy="0" r="1" gradientUnits="userSpaceOnUse" gradientTransform="translate(964.75 620) rotate(89.561) scale(620.018 1102.25)">
<stop stop-color="#032E50"/>
<stop offset="0.963542" stop-color="#021828"/>
</radialGradient>
<clipPath id="clip0_344_984">
<rect width="1920" height="1080" fill="white"/>
</clipPath>
</defs>
</svg>
